<?xml version="1.0" encoding="utf-8"?>
<!-- Generator: Adobe Illustrator 24.2.1, SVG Export Plug-In . SVG Version: 6.00 Build 0)  -->
<svg version="1.1" id="Calque_1" xmlns="http://www.w3.org/2000/svg" xmlns:xlink="http://www.w3.org/1999/xlink" x="0px" y="0px"
	 viewBox="0 0 512 487" style="enable-background:new 0 0 512 487;" xml:space="preserve">
<g>
	<path d="M255.7,486.9l-50.5-50.5c-63.4-56.1-111-99.1-145.5-141.1c-40.9-49.8-60-94.9-60-141.9C-0.3,67.6,66.9,0.4,152.7,0.4
		c37.3,0,74.2,13.6,103.1,37.4C284.6,14,321.5,0.4,358.8,0.4c85.8,0,152.9,67.2,152.9,152.9c0,47.1-19,92.2-60,141.9
		c-34.5,42-82.1,85-145.5,141.1L255.7,486.9z M152.7,54.3c-56.5,0-99,42.6-99,99c0,73.4,67.9,137.1,187.9,243.2l0.6,0.5l13.6,13.6
		l13.6-13.6l0.6-0.5c120-106.1,187.9-169.8,187.9-243.2c0-56.5-42.6-99-99-99c-30.8,0-62.4,14.8-82.5,38.6l-20.6,24.3l-20.6-24.3
		C215,69.1,183.4,54.3,152.7,54.3z"/>
</g>
</svg>
