<svg xmlns="http://www.w3.org/2000/svg" data-name="Layer 1" viewBox="0 0 512 640" x="0px" y="0px"><title>like</title><g><path d="M256,499.26l-50.54-50.54c-63.4-56.09-111-99.1-145.5-141.1C19.05,257.85,0,212.74,0,165.67,0,79.92,67.17,12.74,152.93,12.74c37.3,0,74.18,13.64,103.07,37.39,28.9-23.75,65.78-37.39,103.07-37.39C444.83,12.74,512,79.92,512,165.67c0,47.07-19.05,92.18-60,141.94-34.52,42-82.1,85-145.5,141.1ZM152.93,66.64c-56.46,0-99,42.57-99,99,0,73.44,67.89,137.07,187.89,243.23l0.62,0.55L256,423l13.59-13.6,0.62-.55c120-106.15,187.89-169.79,187.89-243.23,0-56.46-42.57-99-99-99-30.76,0-62.38,14.78-82.5,38.56L256,129.51,235.43,105.2C215.3,81.41,183.69,66.64,152.93,66.64Z"/></g><text x="0" y="527" fill="#000000" font-size="5px" font-weight="bold" font-family="'Helvetica Neue', Helvetica, Arial-Unicode, Arial, Sans-serif">Created by i cons</text><text x="0" y="532" fill="#000000" font-size="5px" font-weight="bold" font-family="'Helvetica Neue', Helvetica, Arial-Unicode, Arial, Sans-serif">from the Noun Project</text></svg>